<svg xmlns="http://www.w3.org/2000/svg" version="1.1" xmlns:xlink="http://www.w3.org/1999/xlink" xmlns:svgjs="http://svgjs.dev/svgjs" width="1440" height="560" preserveAspectRatio="none" viewBox="0 0 1440 560"><g mask="url(&quot;#SvgjsMask1128&quot;)" fill="none"><rect width="1440" height="560" x="0" y="0" fill="rgba(24, 106, 59, 1)"></rect><path d="M0,403.982C78.076,413.27,168.357,404.413,224.571,349.44C280.051,295.185,245.688,197.392,281.599,128.602C320.775,53.558,439.523,21.388,440.02,-63.265C440.5,-145.035,339.992,-186.509,283.798,-245.912C230.426,-302.332,193.032,-381.74,118.404,-403.248C43.848,-424.735,-38.082,-397.068,-105.117,-357.997C-164.466,-323.406,-193.056,-257.346,-230.613,-199.828C-263.036,-150.173,-285.26,-98.532,-309.791,-44.541C-344.823,32.561,-432.828,105.036,-405.559,185.213C-379.073,263.087,-265.067,260.754,-192.673,299.805C-127.086,335.184,-73.999,395.179,0,403.982" fill="#12502c"></path><path d="M1440 918.9359999999999C1506.932 930.9590000000001 1568.59 885.261 1629.142 854.3109999999999 1695.952 820.162 1786.5720000000001 800.358 1810.872 729.371 1835.464 657.532 1756.483 591.205 1744.897 516.162 1733.496 442.31600000000003 1790.2939999999999 355.231 1744.049 296.54 1698.187 238.33499999999998 1606.0720000000001 251.33100000000002 1532.151 246.16199999999998 1471.396 241.914 1414.948 260.778 1354.646 269.31 1282.062 279.58 1200.465 257.752 1141.585 301.422 1080.045 347.06600000000003 1043.012 425.952 1040.216 502.52 1037.504 576.778 1078.51 646.605 1126.921 702.9780000000001 1168.254 751.108 1237.785 757.369 1290.008 793.392 1344.787 831.178 1374.501 907.1700000000001 1440 918.9359999999999" fill="#1e854a"></path></g><defs><mask id="SvgjsMask1128"><rect width="1440" height="560" fill="#ffffff"></rect></mask></defs></svg>